<mxfile host="" modified="2020-07-06T22:54:28.173Z" agent="5.0 (Windows NT 10.0; Win64; x64) AppleWebKit/537.36 (KHTML, like Gecko) Code/1.46.1 Chrome/78.0.3904.130 Electron/7.3.1 Safari/537.36" etag="c0fcibnnZhtVNia47f3X" version="13.1.3">
    <diagram id="6hGFLwfOUW9BJ-s0fimq" name="Page-1">
        <mxGraphModel dx="771" dy="1218" grid="1" gridSize="10" guides="1" tooltips="1" connect="1" arrows="1" fold="1" page="1" pageScale="1" pageWidth="827" pageHeight="1169" math="0" shadow="0">
            <root>
                <mxCell id="0"/>
                <mxCell id="1" parent="0"/>
                <mxCell id="19" value="1" style="endArrow=open;html=1;endSize=12;startArrow=diamondThin;startSize=14;startFill=1;align=left;verticalAlign=bottom;" edge="1" parent="1" source="13" target="18">
                    <mxGeometry x="-1" y="3" relative="1" as="geometry">
                        <mxPoint x="1120" y="450" as="sourcePoint"/>
                        <mxPoint x="1280" y="450" as="targetPoint"/>
                    </mxGeometry>
                </mxCell>
                <mxCell id="21" value="1" style="endArrow=open;html=1;endSize=12;startArrow=diamondThin;startSize=14;startFill=1;align=left;verticalAlign=bottom;" edge="1" parent="1" source="18" target="2">
                    <mxGeometry x="-1" y="3" relative="1" as="geometry">
                        <mxPoint x="1080" y="290" as="sourcePoint"/>
                        <mxPoint x="1160" y="290" as="targetPoint"/>
                    </mxGeometry>
                </mxCell>
                <mxCell id="22" value="1" style="endArrow=open;html=1;endSize=12;startArrow=diamondThin;startSize=14;startFill=1;align=left;verticalAlign=bottom;" edge="1" parent="1" source="18" target="5">
                    <mxGeometry x="-1" y="3" relative="1" as="geometry">
                        <mxPoint x="1305.9999999999998" y="290" as="sourcePoint"/>
                        <mxPoint x="1460" y="206" as="targetPoint"/>
                    </mxGeometry>
                </mxCell>
                <mxCell id="13" value="Fighter" style="swimlane;fontStyle=1;align=center;verticalAlign=top;childLayout=stackLayout;horizontal=1;startSize=26;horizontalStack=0;resizeParent=1;resizeParentMax=0;resizeLast=0;collapsible=1;marginBottom=0;" vertex="1" parent="1">
                    <mxGeometry x="880" y="90" width="190" height="380" as="geometry"/>
                </mxCell>
                <mxCell id="14" value="+ currentWeapon&#10;+ currentWeaponConfig&#10;+ defaultWeaponConfig&#10;+ equipment&#10;+ leftHandTransform&#10;+ mover&#10;+ rightHandTransform&#10;+ target&#10;+ timeBetweenAttacks&#10;+ timeSinceLastAttack" style="text;strokeColor=none;fillColor=none;align=left;verticalAlign=top;spacingLeft=4;spacingRight=4;overflow=hidden;rotatable=0;points=[[0,0.5],[1,0.5]];portConstraint=eastwest;" vertex="1" parent="13">
                    <mxGeometry y="26" width="190" height="144" as="geometry"/>
                </mxCell>
                <mxCell id="15" value="" style="line;strokeWidth=1;fillColor=none;align=left;verticalAlign=middle;spacingTop=-1;spacingLeft=3;spacingRight=3;rotatable=0;labelPosition=right;points=[];portConstraint=eastwest;" vertex="1" parent="13">
                    <mxGeometry y="170" width="190" height="8" as="geometry"/>
                </mxCell>
                <mxCell id="16" value="+ AttachWeapon(WeaponConfig)&#10;+ Attack(GameObject)&#10;+ AttackBehaviour()&#10;+ CanAttack(GameObject)&#10;+ EquipWeapon(WeaponConfig)&#10;+ GetIsInRange(Transform)&#10;+ GetTarget()&#10;+ Hit()&#10;+ SetDefaultWeapon()&#10;+ Shoot()&#10;+ Start()&#10;+ StopAttack()&#10;+ TriggerAttack()&#10;+ UpdateWeapon()" style="text;strokeColor=none;fillColor=none;align=left;verticalAlign=top;spacingLeft=4;spacingRight=4;overflow=hidden;rotatable=0;points=[[0,0.5],[1,0.5]];portConstraint=eastwest;" vertex="1" parent="13">
                    <mxGeometry y="178" width="190" height="202" as="geometry"/>
                </mxCell>
                <mxCell id="18" value="WeaponConfig" style="swimlane;fontStyle=1;align=center;verticalAlign=top;childLayout=stackLayout;horizontal=1;startSize=26;horizontalStack=0;resizeParent=1;resizeParentMax=0;resizeLast=0;collapsible=1;marginBottom=0;" vertex="1" parent="1">
                    <mxGeometry x="1150" y="255" width="146" height="50" as="geometry"/>
                </mxCell>
                <mxCell id="2" value="Weapon" style="swimlane;fontStyle=1;align=center;verticalAlign=top;childLayout=stackLayout;horizontal=1;startSize=26;horizontalStack=0;resizeParent=1;resizeParentMax=0;resizeLast=0;collapsible=1;marginBottom=0;" parent="1" vertex="1">
                    <mxGeometry x="1370" y="120" width="160" height="52" as="geometry"/>
                </mxCell>
                <mxCell id="4" value="+ OnHit()" style="text;strokeColor=none;fillColor=none;align=left;verticalAlign=top;spacingLeft=4;spacingRight=4;overflow=hidden;rotatable=0;points=[[0,0.5],[1,0.5]];portConstraint=eastwest;" parent="2" vertex="1">
                    <mxGeometry y="26" width="160" height="26" as="geometry"/>
                </mxCell>
                <mxCell id="5" value="Projectile" style="swimlane;fontStyle=1;align=center;verticalAlign=top;childLayout=stackLayout;horizontal=1;startSize=26;horizontalStack=0;resizeParent=1;resizeParentMax=0;resizeLast=0;collapsible=1;marginBottom=0;" parent="1" vertex="1">
                    <mxGeometry x="1370" y="285" width="160" height="310" as="geometry"/>
                </mxCell>
                <mxCell id="6" value="+ canBeStucked&#10;+ coroutine_Destroy&#10;+ damage&#10;+ destroyedOnStuck&#10;+ destroyOnHit&#10;+ hitEffect&#10;+ instigator&#10;+ isHoming&#10;+ lifeAfterImpact&#10;+ maxLifeTime&#10;+ onHit&#10;+ speed&#10;+ target" style="text;strokeColor=none;fillColor=none;align=left;verticalAlign=top;spacingLeft=4;spacingRight=4;overflow=hidden;rotatable=0;points=[[0,0.5],[1,0.5]];portConstraint=eastwest;" parent="5" vertex="1">
                    <mxGeometry y="26" width="160" height="194" as="geometry"/>
                </mxCell>
                <mxCell id="7" value="" style="line;strokeWidth=1;fillColor=none;align=left;verticalAlign=middle;spacingTop=-1;spacingLeft=3;spacingRight=3;rotatable=0;labelPosition=right;points=[];portConstraint=eastwest;" parent="5" vertex="1">
                    <mxGeometry y="220" width="160" height="8" as="geometry"/>
                </mxCell>
                <mxCell id="8" value="+ _destroyedAfterLifeTime()&#10;+ DestroyOnCollider()&#10;+ GetAimLocation()&#10;+ SetTarget(Health, GameObject, float)&#10;+ StuckInto(Collider)" style="text;strokeColor=none;fillColor=none;align=left;verticalAlign=top;spacingLeft=4;spacingRight=4;overflow=hidden;rotatable=0;points=[[0,0.5],[1,0.5]];portConstraint=eastwest;" parent="5" vertex="1">
                    <mxGeometry y="228" width="160" height="82" as="geometry"/>
                </mxCell>
                <mxCell id="23" value="????" style="text;html=1;align=center;verticalAlign=middle;resizable=0;points=[];autosize=1;fontColor=#3333FF;labelBorderColor=none;labelBackgroundColor=none;fontSize=24;fontStyle=1" vertex="1" parent="1">
                    <mxGeometry x="880" y="30" width="110" height="30" as="geometry"/>
                </mxCell>
            </root>
        </mxGraphModel>
    </diagram>
</mxfile>